<svg xmlns="http://www.w3.org/2000/svg" viewBox="0 0 512.69 513">
  <defs>
    <g id="linnkedin-icon">
      <g id="linkedin">
        <circle class="cls-2" cx="94.38" cy="94.88" r="51.24"/>
        <path class="cls-2" d="m194.01,185v284.36h88.27v-140.65c0-37.12,7.05-73.03,53.03-73.03s45.93,42.43,45.93,75.41v138.28h88.3l.03-156.01c0-76.55-16.47-135.43-105.97-135.43-34.21-1.26-66.33,16.39-83.63,45.93h-1.17v-38.85h-84.77Z"/>
        <rect class="cls-2" x="50.12" y="185" width="88.39" height="284.36"/>
      </g>
    </g>
    <g id="github-icon">
      <g id="github">
        <path class="cls-4" d="m256.34,6.81C114.96,6.81.34,121.41.34,262.81c0,113.11,73.34,209.07,175.06,242.92,12.8,2.37,17.49-5.55,17.49-12.31,0-6.1-.23-26.26-.34-47.66-71.21,15.49-86.25-30.21-86.25-30.21-11.65-29.59-28.42-37.46-28.42-37.46-23.23-15.89,1.75-15.55,1.75-15.55,25.71,1.81,39.23,26.39,39.23,26.39,22.83,39.13,59.88,27.82,74.5,21.27,2.3-16.55,8.94-27.84,16.26-34.24-56.85-6.46-116.63-28.42-116.63-126.51,0-27.95,10.01-50.79,26.39-68.71-2.67-6.46-11.43-32.49,2.47-67.75,0,0,21.5-6.87,70.42,26.24,20.42-5.67,42.3-8.51,64.06-8.62,21.76.11,43.67,2.94,64.13,8.62,48.85-33.13,70.34-26.24,70.34-26.24,13.93,35.26,5.16,61.29,2.52,67.75,16.41,17.92,26.35,40.77,26.35,68.71,0,98.33-59.88,119.98-116.89,126.31,9.17,7.94,17.37,23.53,17.37,47.4,0,34.26-.3,61.82-.3,70.25,0,6.81,4.61,14.81,17.58,12.29,101.67-33.9,174.93-129.81,174.93-242.88-.02-141.4-114.65-256.02-256.02-256.02Z"/>
        <path class="cls-3" d="m97.3,374.39c-.55,1.28-2.56,1.66-4.39.79-1.86-.83-2.9-2.58-2.3-3.84.55-1.3,2.56-1.66,4.42-.79,1.86.81,2.92,2.56,2.28,3.84h0Z"/>
        <path class="cls-3" d="m107.66,385.95c-1.22,1.13-3.61.6-5.23-1.17-1.69-1.79-1.98-4.18-.75-5.31,1.26-1.13,3.56-.6,5.25,1.19,1.69,1.77,2.01,4.14.73,5.29h0Z"/>
        <path class="cls-3" d="m117.75,400.69c-1.58,1.09-4.14.06-5.72-2.2-1.58-2.28-1.58-5.01.04-6.1,1.58-1.09,4.12-.11,5.72,2.15,1.56,2.3,1.56,5.03-.04,6.14h0Z"/>
        <path class="cls-3" d="m131.58,414.94c-1.41,1.56-4.39,1.13-6.57-.98-2.24-2.07-2.86-4.99-1.45-6.55,1.43-1.56,4.44-1.11,6.63.98,2.22,2.07,2.88,5.01,1.39,6.55h0Z"/>
        <path class="cls-3" d="m150.67,423.2c-.62,2.01-3.5,2.92-6.4,2.07-2.9-.87-4.8-3.22-4.2-5.25.6-2.03,3.5-2.97,6.42-2.05,2.88.85,4.78,3.2,4.18,5.23h0Z"/>
        <path class="cls-3" d="m171.62,424.73c.06,2.11-2.39,3.86-5.44,3.9-3.05.06-5.55-1.64-5.57-3.71,0-2.13,2.41-3.86,5.46-3.93s5.55,1.64,5.55,3.73h0Z"/>
        <path class="cls-3" d="m191.12,421.43c.36,2.05-1.75,4.18-4.78,4.74-2.97.55-5.72-.73-6.1-2.77-.36-2.11,1.79-4.22,4.76-4.78,3.01-.53,5.74.7,6.12,2.82h0Z"/>
      </g>
    </g>
    <g id="discord-icon">
      <g id="discord">
        <path class="cls-3" d="m433.8,93.73c-32.64-14.98-67.63-26.01-104.21-32.32-.66-.13-1.32.19-1.69.79-4.5,8-9.49,18.45-12.97,26.65-39.36-5.89-78.51-5.89-117.06,0-3.48-8.38-8.66-18.65-13.16-26.65-.36-.6-1.02-.9-1.69-.79-36.57,6.29-71.55,17.32-104.21,32.32-.28.11-.53.32-.68.58C11.76,193.46-6.44,290.19,2.48,385.72c.04.47.3.92.66,1.19,43.8,32.17,86.21,51.69,127.85,64.62.66.21,1.37-.04,1.79-.6,9.86-13.44,18.62-27.63,26.15-42.54.45-.87.02-1.92-.9-2.26-13.93-5.29-27.18-11.73-39.94-19.03-1-.6-1.09-2.03-.17-2.73,2.69-2.01,5.38-4.1,7.94-6.21.47-.38,1.11-.47,1.66-.21,83.8,38.25,174.51,38.25,257.3,0,.55-.26,1.19-.19,1.69.21,2.56,2.11,5.25,4.22,7.96,6.23.94.68.87,2.13-.15,2.73-12.76,7.45-26.01,13.76-39.96,19.01-.92.34-1.3,1.41-.87,2.28,7.68,14.89,16.47,29.08,26.13,42.52.41.58,1.13.81,1.79.62,41.83-12.95,84.27-32.47,128.04-64.62.38-.28.62-.7.66-1.17,10.67-110.44-17.88-206.38-75.69-291.41-.11-.3-.36-.51-.64-.62Zm-262.34,233.83c-25.24,0-46.02-23.17-46.02-51.61s20.37-51.61,46.02-51.61,46.42,23.36,46.02,51.61c0,28.46-20.39,51.61-46.02,51.61Zm170.13,0c-25.22,0-46.02-23.17-46.02-51.61s20.37-51.61,46.02-51.61,46.42,23.36,46.02,51.61c0,28.46-20.18,51.61-46.02,51.61Z"/>
      </g>
    </g>
    <g id="email-icon">
      <g id="email">
        <path id="email-2" class="cls-3" d="m511.37,118.73l-179.58,179.58c-41.69,41.59-109.18,41.59-150.87,0L1.33,118.73c-.3,3.37-.98,6.42-.98,9.77v256c.07,58.88,47.79,106.6,106.67,106.67h298.67c58.88-.07,106.6-47.79,106.67-106.67V128.5c0-3.35-.68-6.4-.98-9.77Z"/>
        <path id="email-1" class="cls-3" d="m301.62,268.15l194.86-194.88c-19.2-31.83-53.62-51.33-90.79-51.43H107.01c-37.17.1-71.6,19.6-90.79,51.43l194.86,194.88c25.03,24.93,65.51,24.93,90.54,0Z"/>
      </g>
    </g>
    <g id="menu-icon">
      <g id="menu">
        <path class="cls-3" d="m480.35,224.5H32.35c-17.67,0-32,14.33-32,32s14.33,32,32,32h448c17.67,0,32-14.33,32-32s-14.33-32-32-32Z"/>
        <path class="cls-3" d="m32.35,139.17h448c17.67,0,32-14.33,32-32s-14.33-32-32-32H32.35C14.67,75.17.35,89.49.35,107.17s14.33,32,32,32Z"/>
        <path class="cls-3" d="m480.35,373.83H32.35c-17.67,0-32,14.33-32,32s14.33,32,32,32h448c17.67,0,32-14.33,32-32s-14.33-32-32-32Z"/>
      </g>
    </g>
    <g id="search-icon">
      <g id="search">
        <path class="cls-3" d="m502.98,458l-99.1-99.14c74.15-99.09,53.93-239.53-45.16-313.67S119.2-8.75,45.05,90.34C-29.09,189.43-8.88,329.87,90.21,404.02c79.6,59.56,188.92,59.56,268.52,0l99.14,99.14c12.46,12.46,32.66,12.46,45.11,0,12.46-12.46,12.46-32.66,0-45.11v-.04Zm-277.69-73.12c-88.07,0-159.46-71.39-159.46-159.46S137.23,65.97,225.3,65.97s159.46,71.39,159.46,159.46c-.09,88.03-71.43,159.36-159.46,159.46Z"/>
      </g>
    </g>
    <g id="close-icon">
      <g id="close">
        <path id="close-2" data-name="close" class="cls-3" d="m311.29,255.88l99.07-99.17c13.98-15.88,12.43-40.09-3.46-54.07-14.47-12.73-36.14-12.73-50.61,0l-99.17,99.07-99.35-99.37c-14.97-14.97-39.23-14.97-54.19,0s-14.97,39.23,0,54.19l99.37,99.35-99.07,99.14c-15.77,14.1-17.13,38.32-3.03,54.09,14.1,15.77,38.32,17.13,54.09,3.03,1.07-.95,2.08-1.96,3.03-3.03l99.14-99.07,99.04,99.07c14.97,14.97,39.23,14.97,54.19,0,14.97-14.97,14.97-39.23,0-54.19l-99.07-99.04Z"/>
      </g>
    </g>
    <g id="right-icon">
      <g id="right">
        <path class="cls-3" d="m130.03,480.3c0-8.48,3.38-16.62,9.39-22.61l163.67-163.67c20.83-20.83,20.84-54.59,0-75.42h0S139.63,55.02,139.63,55.02c-12.28-12.71-11.93-32.97.79-45.25,12.4-11.98,32.06-11.98,44.46,0l163.46,163.43c45.76,45.85,45.76,120.1,0,165.95l-163.67,163.67c-12.49,12.5-32.75,12.51-45.25.01-5.98-5.98-9.36-14.08-9.38-22.54Z"/>
      </g>
    </g>
    <g id="left-icon">
      <g id="left">
        <path class="cls-3" d="m382.66,32.81c0,8.48-3.38,16.62-9.39,22.61l-163.67,163.67c-20.83,20.83-20.84,54.59,0,75.42h0s163.46,163.47,163.46,163.47c12.28,12.71,11.93,32.97-.79,45.25-12.4,11.98-32.06,11.98-44.46,0l-163.46-163.33c-45.76-45.85-45.76-120.1,0-165.95L328.03,10.17c12.49-12.5,32.75-12.51,45.25-.01,6.01,6.01,9.38,14.15,9.38,22.65Z"/>
      </g>
    </g>
    <g id="notfound-icon">
      <path id="notfound" class="cls-3" d="m416.56,21.52H96.13C43.04,21.52,0,64.56,0,117.65v256.35c0,64.79,52.7,117.49,117.49,117.49h277.71c64.79,0,117.49-52.7,117.49-117.49V117.65c0-53.09-43.04-96.13-96.13-96.13Zm-213.62,42.72c17.69,0,32.04,14.36,32.04,32.04s-14.36,32.04-32.04,32.04-32.04-14.36-32.04-32.04,14.36-32.04,32.04-32.04Zm-106.81,0c17.69,0,32.04,14.36,32.04,32.04s-14.36,32.04-32.04,32.04-32.04-14.36-32.04-32.04,14.36-32.04,32.04-32.04Zm352.48,309.75c0,29.44-23.97,53.41-53.41,53.41H117.49c-29.44,0-53.41-23.97-53.41-53.41v-202.94h384.52v202.94Zm-174-99.23l11.6-11.6-11.6-11.6c-8.35-8.35-8.35-21.85,0-30.21s21.85-8.35,30.21,0l11.6,11.6,11.6-11.6c8.35-8.35,21.85-8.35,30.21,0s8.35,21.85,0,30.21l-11.6,11.6,11.6,11.6c8.35,8.35,8.35,21.85,0,30.21-4.17,4.17-9.63,6.26-15.1,6.26s-10.94-2.09-15.1-6.26l-11.6-11.6-11.6,11.6c-4.17,4.17-9.63,6.26-15.1,6.26s-10.94-2.09-15.1-6.26c-8.35-8.35-8.35-21.85,0-30.21Zm-120.16,0l11.6-11.6-11.6-11.6c-8.35-8.35-8.35-21.85,0-30.21,8.35-8.35,21.85-8.35,30.21,0l11.6,11.6,11.6-11.6c8.35-8.35,21.85-8.35,30.21,0,8.35,8.35,8.35,21.85,0,30.21l-11.6,11.6,11.6,11.6c8.35,8.35,8.35,21.85,0,30.21-4.17,4.17-9.63,6.26-15.1,6.26s-10.94-2.09-15.1-6.26l-11.6-11.6-11.6,11.6c-4.17,4.17-9.63,6.26-15.1,6.26s-10.94-2.09-15.1-6.26c-8.35-8.35-8.35-21.85,0-30.21Zm40.52,80.19c41.61-17.39,81.77-17.3,123.35.26,10.87,4.59,15.98,17.11,11.39,27.98-3.44,8.16-11.36,13.07-19.7,13.07-2.76,0-5.58-.53-8.29-1.69-31.04-13.07-59.19-13.16-90.28-.19-10.92,4.55-23.41-.6-27.94-11.49-4.55-10.89.6-23.39,11.49-27.94h-.02Z"/>
    </g>
    <g id="world-icon">
      <path id="world" class="cls-3" d="m256.35.5C114.96.5.35,115.12.35,256.5s114.62,256,256,256,256-114.62,256-256C512.19,115.18,397.67.65,256.35.5Zm10.67,447.47v-27.41c0-49.37-40.02-89.39-89.39-89.39h-.21c-17.79,0-34.85-7.07-47.42-19.65l-65.13-65.17c5.43-105.72,95.53-187.03,201.25-181.6,34.76,1.78,68.37,13,97.24,32.44-5.65,4.15-12.47,6.39-19.48,6.4h-30.59c-18.32,0-33.17,14.85-33.17,33.17,0,.02,0,.04,0,.06v22.23c0,18.32-14.85,33.17-33.17,33.17h0c-18.32-.05-33.21,14.77-33.26,33.09,0,.03,0,.06,0,.09v22.23c0,18.32,14.85,33.17,33.17,33.17h88.66c18.32,0,33.17,14.85,33.17,33.17h0v32.43c0,8.8,3.5,17.25,9.73,23.47l17.77,17.77c-33.67,36.01-79.95,57.62-129.17,60.33Z"/>
    </g>
    <g id="globe-icon">
      <path id="globe" class="cls-3" d="m256.35.5C114.96.5.35,115.12.35,256.5s114.62,256,256,256,256-114.62,256-256C512.19,115.18,397.67.65,256.35.5Zm190.74,234.67h-74.2c-4.84-55.58-21.49-109.48-48.83-158.1,67.39,25.49,114.88,86.51,123.03,158.1Zm-240.13,64h98.77c-8.4,44.69-25.16,87.39-49.39,125.87-24.24-38.47-40.99-81.18-49.39-125.87Zm-2.82-64c5.97-52.4,23.83-102.74,52.2-147.2,28.38,44.45,46.23,94.8,52.2,147.2h-104.41Zm-15.51-158.1c-27.35,48.62-43.99,102.53-48.83,158.1h-74.2c8.15-71.59,55.64-132.61,123.03-158.1Zm-119.34,222.1h72.73c7.18,48.02,22.97,94.36,46.61,136.77-60.13-22.79-104.91-74.1-119.34-136.77Zm254.76,136.77c23.65-42.41,39.45-88.74,46.61-136.77h72.73c-14.43,62.66-59.21,113.98-119.34,136.77h0Z"/>
    </g>
    <g id="link-icon">
      <path id="link" class="cls-3" d="m168.79,344.05c-12.5-12.48-12.5-32.77,0-45.25,12.5-12.5,32.75-12.5,45.25,0,28.29,28.29,77.65,28.31,105.94,0l106.43-106.43c29.21-29.21,29.21-76.74,0-105.94-29.21-29.21-76.74-29.21-105.94,0-12.5,12.5-32.75,12.5-45.25,0-12.5-12.48-12.5-32.77,0-45.25,54.14-54.17,142.29-54.17,196.44,0,54.17,54.17,54.17,142.27,0,196.44l-106.43,106.43c-27.09,27.09-62.66,40.62-98.22,40.62s-71.15-13.55-98.22-40.62Zm-29.53,168.38c35.56,0,71.13-13.55,98.22-40.62,12.5-12.48,12.5-32.77,0-45.25-12.5-12.5-32.75-12.5-45.25,0-29.23,29.23-76.76,29.21-105.94,0-29.21-29.21-29.21-76.74,0-105.94l105.83-105.83c29.23-29.23,76.76-29.23,105.94,0,12.5,12.5,32.75,12.5,45.25,0,12.5-12.48,12.5-32.77,0-45.25-54.17-54.17-142.27-54.17-196.44,0l-105.86,105.83c-54.17,54.17-54.17,142.27,0,196.44,27.09,27.09,62.66,40.62,98.22,40.62h.02Z"/>
    </g>
    <g id="moon-icon">
      <path id="moon" class="cls-1" d="m320.44,512.5c-141.38.1-256.08-114.44-256.18-255.82C64.17,115.29,178.7.6,320.09.5c29.64-.02,59.05,5.1,86.93,15.15,32.49,11.66,49.38,47.45,37.72,79.94-3.99,11.12-11.05,20.88-20.36,28.15-108.8,83.63-108.54,182.17,0,265.51,27.2,21.26,32.02,60.54,10.76,87.74-7.28,9.31-17.04,16.37-28.17,20.36-27.78,9.91-57.04,15.04-86.53,15.15Zm0-448c-106.04-.12-192.09,85.75-192.21,191.79-.12,106.04,85.75,192.09,191.79,192.21,21.38.02,42.61-3.52,62.82-10.5-138.9-108.05-138.43-255.34,0-363.01-20.11-6.81-41.17-10.35-62.4-10.5Z"/>
    </g>
    <g id="quotes-right-icon">
      <g id="quotes-right">
        <path class="cls-3" d="m171.01,64.5h-85.33C38.55,64.5.35,102.71.35,149.83v85.33c0,23.56,19.1,42.67,42.67,42.67h106.67c-.07,58.88-47.79,106.6-106.67,106.67-17.67,0-32,14.33-32,32s14.33,32,32,32c94.21-.11,170.56-76.45,170.67-170.67V107.17c0-23.56-19.1-42.67-42.67-42.67Z"/>
        <path class="cls-3" d="m469.68,64.5h-85.33c-47.13,0-85.33,38.21-85.33,85.33v85.33c0,23.56,19.1,42.67,42.67,42.67h106.67c-.07,58.88-47.79,106.6-106.67,106.67-17.67,0-32,14.33-32,32s14.33,32,32,32c94.21-.11,170.56-76.45,170.67-170.67V107.17c0-23.56-19.1-42.67-42.67-42.67Z"/>
      </g>
    </g>
    <g id="quotes-left-icon">
      <g id="quotes-left">
        <path class="cls-3" d="m341.68,448.5h85.33c47.13,0,85.33-38.21,85.33-85.33v-85.33c0-23.56-19.1-42.67-42.67-42.67h-106.67c.07-58.88,47.79-106.6,106.67-106.67,17.67,0,32-14.33,32-32,0-17.67-14.33-32-32-32-94.21.11-170.56,76.45-170.67,170.67v170.67c0,23.56,19.1,42.67,42.67,42.67Z"/>
        <path class="cls-3" d="m43.01,448.5h85.33c47.13,0,85.33-38.21,85.33-85.33v-85.33c0-23.56-19.1-42.67-42.67-42.67h-106.67c.07-58.88,47.79-106.6,106.67-106.67,17.67,0,32-14.33,32-32,0-17.67-14.33-32-32-32C76.8,64.61.45,140.95.35,235.17v170.67c0,23.56,19.1,42.67,42.67,42.67Z"/>
      </g>
    </g>
    <g id="user-icon">
      <g id="user">
        <circle class="cls-3" cx="256.35" cy="128.5" r="128"/>
        <path class="cls-3" d="m256.35,299.17c-105.99.12-191.88,86.01-192,192,0,11.78,9.55,21.33,21.33,21.33h341.33c11.78,0,21.33-9.55,21.33-21.33-.12-105.99-86.01-191.88-192-192Z"/>
      </g>
    </g>
    <g id="goal-icon">
      <path id="goal" class="cls-3" d="m512.32,256.52c0,141.23-114.77,256-256,256S.32,397.75.32,256.52,115.1.52,256.32.52c4.05,0,8.11,0,12.16.21,17.71.85,31.36,15.79,30.51,33.49s-15.36,30.93-33.49,30.51c-2.99,0-6.19-.21-9.17-.21-105.81,0-192,86.19-192,192s86.19,192,192,192,192-86.19,192-192c0-2.99,0-6.19-.21-9.17-.85-17.71,12.8-32.64,30.51-33.49,18.13-.64,32.64,12.8,33.49,30.51,0,4.05.21,8.11.21,12.16Zm-279.25-82.13c17.07-4.91,26.88-22.4,22.19-39.47s-22.61-26.88-39.47-22.19c-64,18.13-108.59,77.23-108.59,143.79,0,82.35,66.99,149.33,149.33,149.33,66.56,0,125.65-44.59,143.79-108.59,4.91-17.07-5.12-34.77-22.19-39.47-17.07-4.91-34.77,5.12-39.47,22.19-10.24,36.48-44.16,62.08-82.13,62.08-47.15,0-85.33-38.19-85.33-85.33,0-37.97,25.6-71.89,62.08-82.13l-.21-.21Zm.64,59.52c-12.59,12.59-12.59,32.85,0,45.23,6.19,6.19,14.51,9.39,22.61,9.39s16.43-3.2,22.61-9.39l107.95-107.95h50.77c8.53,0,16.64-3.41,22.61-9.39l42.67-42.67c9.17-9.17,11.95-22.83,7.04-34.77s-16.64-19.84-29.65-19.84h-32v-32c0-13.01-7.89-24.53-19.84-29.65-11.95-4.91-25.81-2.13-34.77,7.04l-42.67,42.67c-5.97,5.97-9.39,14.08-9.39,22.61v50.77l-107.95,107.95h0Z"/>
    </g>
    <g id="cursor-right-icon">
      <g id="cursor-right">
        <path id="cursor" class="cls-3" d="m290.37,512.5c-4.89,0-9.71-.45-14.38-1.3-31.3-5.7-62.89-31.22-62.89-75.37v-136.44H76.98c-44.19.02-69.71-31.58-75.41-62.91-5.7-31.3,7.06-69.84,48.4-85.42L399.8,6.11c31.43-11.84,65.02-4.61,88.26,18.65,23.28,23.26,30.51,56.83,18.91,87.6l-145.74,351.17c-13.04,34.59-42.91,48.97-70.82,48.97h-.02Z"/>
      </g>
    </g>
    <g id="cursor-left-icon">
      <g id="cursor-left">
        <path id="cursor-2" data-name="cursor" class="cls-3" d="m512.35,222.48c0,4.89-.45,9.71-1.3,14.38-5.7,31.3-31.22,62.89-75.37,62.89h-136.44s0,136.12,0,136.12c.02,44.19-31.58,69.71-62.91,75.41-31.3,5.7-69.84-7.06-85.42-48.4L5.96,113.05C-5.89,81.62,1.35,48.03,24.61,24.79,47.87,1.51,81.43-5.72,112.2,5.89l351.17,145.74c34.59,13.04,48.97,42.91,48.97,70.82v.02Z"/>
      </g>
    </g>
    <g id="mail-unfilled-icon">
      <path id="mail-unfilled" class="cls-3" d="m395.01,21.83H117.68C52.91,21.9.42,74.39.35,139.17v234.67c.07,64.77,52.56,117.26,117.33,117.33h277.33c64.77-.07,117.26-52.56,117.33-117.33v-234.67c-.07-64.77-52.56-117.26-117.33-117.33Zm0,64c12.94.04,25.41,4.83,35.05,13.46l-138.67,138.67c-19.57,18.69-50.37,18.69-69.93,0L82.8,99.29c9.6-8.59,22-13.38,34.88-13.46h277.33Zm0,341.33H117.68c-29.46,0-53.33-23.88-53.33-53.33v-202.3l111.77,111.77c44.29,44.31,116.11,44.32,160.41.03.01-.01.02-.02.03-.03l111.79-111.77v202.3c0,29.46-23.88,53.33-53.33,53.33Z"/>
    </g>
    <g id="location-icon">
      <path id="location" class="cls-3" d="m256.35.5C138.81.63,43.56,95.87,43.42,213.4c0,54.83,42.45,140.63,126.19,255.02,34.97,47.91,102.15,58.39,150.06,23.42,8.97-6.55,16.88-14.45,23.42-23.42,83.73-114.39,126.19-200.19,126.19-255.02C469.13,95.87,373.88.63,256.35.5Zm0,297.77c-47.13,0-85.33-38.21-85.33-85.33s38.21-85.33,85.33-85.33,85.33,38.21,85.33,85.33-38.21,85.33-85.33,85.33Z"/>
    </g>
    <g id="heart-icon">
      <g id="heart">
        <path class="cls-3" d="m373.68,31.48c-48.9.76-93.65,27.61-117.33,70.4-23.68-42.79-68.44-69.64-117.33-70.4C59.29,34.94-2.66,102.14.35,181.88c0,97,102.1,202.94,187.73,274.77,39.47,33.17,97.06,33.17,136.53,0,85.63-71.83,187.73-177.77,187.73-274.77,3.01-79.74-58.95-146.94-138.67-150.4Z"/>
      </g>
    </g>
    <g id="instagram-icon">
      <g id="instagram">
        <path class="cls-3" d="m256.35,46.62c68.35,0,76.46.26,103.45,1.49,27.9,1.28,56.64,7.64,76.97,27.97,20.52,20.52,26.69,48.98,27.97,76.97,1.24,26.99,1.49,35.09,1.49,103.45s-.26,76.46-1.49,103.45c-1.26,27.75-7.77,56.77-27.97,76.97s-48.96,26.69-76.97,27.97c-26.99,1.24-35.09,1.49-103.45,1.49s-76.46-.26-103.45-1.49c-27.54-1.26-56.94-7.91-76.97-27.97-20.42-20.42-26.69-49.15-27.97-76.97-1.24-26.99-1.49-35.09-1.49-103.45s.26-76.46,1.49-103.45c1.26-27.65,7.83-56.83,27.97-76.97,20.48-20.48,49.05-26.69,76.97-27.97,26.99-1.24,35.09-1.49,103.45-1.49m0-46.12c-69.53,0-78.25.3-105.56,1.54-39.57,1.81-78.87,12.82-107.48,41.43C14.6,72.18,3.7,111.39,1.88,150.94c-1.24,27.31-1.54,36.03-1.54,105.56s.3,78.25,1.54,105.56c1.81,39.53,12.86,78.93,41.43,107.48,28.69,28.69,67.97,39.62,107.48,41.43,27.31,1.24,36.03,1.54,105.56,1.54s78.25-.3,105.56-1.54c39.55-1.81,78.89-12.84,107.48-41.43s39.62-67.93,41.43-107.48c1.24-27.31,1.54-36.03,1.54-105.56s-.3-78.25-1.54-105.56c-1.81-39.57-12.84-78.89-41.43-107.48C440.73,14.81,401.35,3.83,361.9,2.04c-27.31-1.24-36.03-1.54-105.56-1.54Z"/>
        <path class="cls-3" d="m256.35,125.04c-72.6,0-131.46,58.86-131.46,131.46s58.86,131.46,131.46,131.46,131.46-58.86,131.46-131.46-58.86-131.46-131.46-131.46Zm0,216.79c-47.13,0-85.33-38.21-85.33-85.33s38.21-85.33,85.33-85.33,85.33,38.21,85.33,85.33-38.21,85.33-85.33,85.33Z"/>
        <circle class="cls-3" cx="393.01" cy="119.84" r="30.72"/>
      </g>
    </g>
    <g id="facebook-icon">
      <g id="facebook">
        <path class="cls-3" d="m512.35,258.05c0,127.77-93.74,233.69-216.11,252.91v-178.41h59.5l11.33-73.81h-70.83v-47.89c0-20.2,9.9-39.87,41.6-39.87h32.19v-62.85s-29.23-4.99-57.15-4.99c-58.33,0-96.43,35.35-96.43,99.33v56.26h-64.83v73.81h64.83v178.41C94.11,491.69.35,385.79.35,258.05.35,116.67,114.97,2.05,256.35,2.05s256,114.6,256,256Z"/>
      </g>
    </g>
  </defs>

</svg>